<svg xmlns="http://www.w3.org/2000/svg" viewBox="0 0 18 18">
  <title>Instagram</title>
  <path d="M18.946 6.289a6.606 6.606 0 0 0-.418-2.185 4.412 4.412 0 0 0-1.038-1.594 4.412 4.412 0 0 0-1.594-1.038 6.606 6.606 0 0 0-2.185-.418c-.96-.044-1.266-.054-3.711-.054s-2.751.01-3.711.054a6.606 6.606 0 0 0-2.185.418 4.412 4.412 0 0 0-1.594 1.038 4.412 4.412 0 0 0-1.038 1.594 6.606 6.606 0 0 0-.418 2.185c-.044.96-.054 1.266-.054 3.711s.01 2.751.054 3.711a6.606 6.606 0 0 0 .418 2.185 4.412 4.412 0 0 0 1.038 1.594 4.411 4.411 0 0 0 1.594 1.038 6.606 6.606 0 0 0 2.185.418c.96.044 1.266.054 3.711.054s2.751-.01 3.711-.054a6.606 6.606 0 0 0 2.185-.418 4.602 4.602 0 0 0 2.632-2.632 6.606 6.606 0 0 0 .418-2.185c.044-.96.054-1.266.054-3.711s-.01-2.751-.054-3.711zm-1.62 7.347a4.978 4.978 0 0 1-.31 1.671 2.98 2.98 0 0 1-1.708 1.708 4.979 4.979 0 0 1-1.671.31c-.949.043-1.234.052-3.637.052s-2.688-.009-3.637-.052a4.979 4.979 0 0 1-1.671-.31 2.788 2.788 0 0 1-1.035-.673 2.788 2.788 0 0 1-.673-1.035 4.978 4.978 0 0 1-.31-1.671c-.043-.949-.052-1.234-.052-3.637s.009-2.688.052-3.637a4.979 4.979 0 0 1 .31-1.671 2.788 2.788 0 0 1 .673-1.035 2.788 2.788 0 0 1 1.035-.673 4.979 4.979 0 0 1 1.671-.31c.949-.043 1.234-.052 3.637-.052s2.688.009 3.637.052a4.979 4.979 0 0 1 1.671.31 2.788 2.788 0 0 1 1.035.673 2.788 2.788 0 0 1 .673 1.035 4.979 4.979 0 0 1 .31 1.671c.043.949.052 1.234.052 3.637s-.009 2.688-.052 3.637zm-7.326-8.258a4.622 4.622 0 1 0 4.622 4.622 4.622 4.622 0 0 0-4.622-4.622zm0 7.622a3 3 0 1 1 3-3 3 3 0 0 1-3 3zm5.884-7.804a1.08 1.08 0 1 1-1.08-1.08 1.08 1.08 0 0 1 1.08 1.08z" transform="translate(-1 -1)"/>
</svg>
