<svg width="530" height="530" viewBox="0 0 530 530" xmlns="http://www.w3.org/2000/svg">
  <title>IMDb</title>
  <path d="M60 40c-11.046 0-20 8.954-20 20v410c0 11.046 8.954 20 20 20h410c11.046 0 20-8.954 20-20v-410c0-11.046-8.954-20-20-20h-410zm0-40h410c33.137 0 60 26.863 60 60v410c0 33.137-26.863 60-60 60h-410c-33.137 0-60-26.863-60-60v-410c0-33.137 26.863-60 60-60zm45.618 184v160.2h-40.618v-160.2h40.618zm143.046 0v160.2h-35.771v-108.152l-14.289 108.152h-25.371l-15.067-105.679v105.679h-35.771v-160.2h52.977c1.555 9.631 3.208 20.977 4.957 34.039l5.638 40.767 9.332-74.806h53.366zm16.777 0h30.81c19.888 0 33.337.924 40.346 2.771 7.01 1.847 12.34 4.882 15.992 9.103 3.652 4.222 5.934 8.922 6.847 14.1.913 5.178 1.369 15.354 1.369 30.526v56.105c0 14.381-.668 23.995-2.005 28.844-1.337 4.849-3.668 8.642-6.993 11.379-3.326 2.738-7.433 4.651-12.324 5.739-4.89 1.088-12.259 1.633-22.105 1.633h-51.937v-160.2zm41.501 27.9v104.4c5.639 0 9.109-1.193 10.41-3.578 1.301-2.385 1.952-8.871 1.952-19.459v-61.66c0-7.189-.217-11.796-.651-13.822-.434-2.026-1.425-3.513-2.974-4.46-1.549-.948-4.461-1.421-8.737-1.421zm106.575-27.9v37.764c3.256-3.813 6.887-6.655 10.892-8.529 4.005-1.873 8.352-2.81 13.042-2.81 5.406 0 10.095.855 14.067 2.564 3.973 1.709 7.001 4.108 9.085 7.198 2.084 3.089 3.338 6.113 3.761 9.071.423 2.958.635 9.268.635 18.931v58.963c0 9.597-.635 16.746-1.905 21.446-1.27 4.7-4.249 8.775-8.939 12.226-4.689 3.451-10.257 5.177-16.705 5.177-4.624 0-8.939-1.019-12.944-3.057-4.005-2.038-7.669-5.094-10.99-9.17l-2.54 9.86h-36.927v-159.634h39.467zm12.389 65.843c0-6.76-.419-11.174-1.256-13.242-.837-2.068-2.479-3.101-4.925-3.101-2.382 0-3.928.902-4.636 2.707-.708 1.805-1.062 6.35-1.062 13.636v56.315c0 7.023.402 11.519 1.207 13.488.805 1.969 2.398 2.954 4.781 2.954 2.447 0 4.04-1.017 4.781-3.052.74-2.035 1.111-6.924 1.111-14.67v-55.035z" fill-rule="nonzero"/>
</svg>
