<?xml version="1.0" encoding="UTF-8"?>
<svg width="16px" height="16px" viewBox="0 0 16 16" version="1.1" xmlns="http://www.w3.org/2000/svg" xmlns:xlink="http://www.w3.org/1999/xlink">
    <!-- Generator: Sketch 40.3 (33839) - http://www.bohemiancoding.com/sketch -->
    <title>safari-pinned-tab</title>
    <desc>Created with Sketch.</desc>
    <defs></defs>
    <g id="Page-1" stroke="none" stroke-width="1" fill="none" fill-rule="evenodd">
        <g id="safari-pinned-tab" fill="#000000">
            <path d="M3.3104,5.82794483 L3.29629831,5.84491034 C3.49494237,5.81994483 3.69372203,5.79497931 3.8944,5.76973793 C3.91731525,6.80215172 3.86226441,6.89470345 2.99297627,7.20449655 C2.50714576,7.37773793 2.0263322,7.54711724 1.50416271,7.61704828 C0.413044068,7.76325517 0.228094915,7.5073931 0.291688136,6.38518621 C0.370332203,4.99828966 0.687213559,3.62449655 0.916501695,2.24766897 C0.987823729,1.8198069 1.60884068,1.48904828 2.01372203,1.61166897 C2.26484068,1.68753103 2.15026441,1.86546207 2.13765424,2.00201379 C2.02850169,3.18822069 1.91094237,4.3736 1.79514576,5.55911724 C1.77304407,5.78587586 1.74795932,6.01222069 1.7163661,6.31373793 C2.28635853,6.16915947 2.81921128,6.10285903 3.29967439,5.83398572 C3.37580456,5.52108639 3.8400113,5.71753417 3.8620339,5.46742069 C3.93620339,4.62066207 4.66949153,4.95321379 5.09566102,4.6425931 C5.15355932,5.14135172 5.1040678,5.56617931 5.07315254,5.99611034 C5.05783051,6.20866207 4.79640678,6.60576552 5.25118644,6.63693793 C5.58664407,6.65983448 6.03477966,6.61776552 6.07844068,6.13376552 C6.17281356,5.09017931 6.25349153,4.04245517 6.26962712,2.99542069 C6.27789831,2.45128276 5.98230508,2.13197241 5.36155932,2.15431724 C4.32562712,2.19169655 3.72508475,2.7950069 3.28250847,3.65266207 C3.2000678,3.81224828 3.15844068,4.07417931 3.03749153,4.1185931 C2.53267797,4.30424828 2.48277966,5.02907586 2.59681356,5.04562759 C3.11111864,5.12052414 2.77850847,5.88824828 3.31030508,5.82797241 C3.31030508,5.82797241 3.31029459,5.82798516 3.3102742,5.82800993 C3.30673738,5.83002064 3.3032073,5.83200866 3.29967439,5.83398572 C3.29893223,5.83703603 3.29822695,5.84013475 3.29755932,5.84328276 C3.29637244,5.84489256 3.30955075,5.82888862 3.3102742,5.82800993 Z M11.2776271,3.62077241 C11.1103051,4.09773793 10.9515254,4.42697931 10.883322,4.77456552 C10.7848814,5.27649655 10.4572881,5.41566897 10.028678,5.49166897 C9.76942373,5.53773793 9.62759322,5.50794483 9.5280678,5.22091034 C9.36644068,4.75470345 9.14555932,4.30973793 8.90854237,3.76035862 C8.68250847,4.42532414 8.49579661,4.99304828 8.29579661,5.55594483 C8.18488136,5.86849655 7.3759322,6.28973793 7.08183051,6.20987586 C6.90949153,6.16297931 6.90867797,6.0193931 6.88861017,5.88656552 C6.75111864,4.97994483 6.61579661,4.07594483 6.59016949,3.15346207 C6.57308475,2.53608276 6.98244068,2.5313931 7.36969492,2.44794483 C7.57172881,2.40435862 7.57525424,2.55346207 7.58677966,2.69649655 C7.61620339,3.06146207 7.65105085,3.42587586 7.70067797,3.98063448 C7.92155932,3.41773793 8.12901695,3.03125517 8.22162712,2.61801379 C8.35098305,2.04132414 8.78352542,2.03194483 9.20061017,1.97194483 C9.67898305,1.90297931 9.53661017,2.36187586 9.65444068,2.58118621 C9.82555932,2.89966897 9.92901695,3.25594483 10.0964746,3.68642759 C10.4044068,3.13166897 10.4873898,2.57097931 10.6549831,2.04532414 C10.8250169,1.51153103 11.2745085,1.31415172 11.7907119,1.57249655 C11.8101017,1.58228966 11.8262373,1.61884138 11.8400678,1.61677241 C13.4018305,1.38628966 13.5420339,2.88008276 14.2560678,3.67663448 C14.2995932,3.72518621 14.3368814,3.77953103 14.4492881,3.92353103 C14.5530169,2.97153103 14.6464407,2.10477241 14.7427119,1.23828966 C14.7653559,1.03401379 14.7744407,0.823944828 14.8303051,0.628358621 C14.9576271,0.183255172 15.3724068,0.115531034 15.7039322,0.143255172 C16.1475932,0.18022069 15.8928136,0.57497931 15.8739661,0.801875862 C15.7524746,2.26449655 15.5973559,3.72408276 15.4765424,5.18670345 C15.452678,5.47635862 15.416339,5.67291034 15.0815593,5.68573793 C14.7330847,5.69884138 14.348678,6.04353103 14.0728814,5.52008276 C13.6700339,4.7553931 13.1888136,4.04173793 12.6292203,3.30077241 C12.4095593,3.72435862 12.4543051,4.1473931 12.3452881,4.5296 C12.2974237,4.6976 12.3498983,4.92132414 12.1222373,4.98766897 C11.8892881,5.0553931 11.6168814,5.19966897 11.4216271,5.13194483 C11.1515254,5.03842759 11.3288814,4.74022069 11.3581695,4.52766897 C11.3931525,4.27470345 11.4007458,4.02449655 11.2776271,3.62077241 Z M12.8456949,9.25365517 C12.795661,9.09724138 12.3705763,8.87075862 12.9416949,8.83696552 C13.3517288,8.81255172 13.7882034,8.90662069 14.1959322,8.684 C14.1491525,8.60482759 14.1328814,8.54813793 14.112,8.54648276 C12.7543051,8.4297931 12.5602712,8.21117241 12.6263051,6.85724138 C12.6408136,6.56013793 12.6957288,6.26124138 12.6753898,5.96703448 C12.6398644,5.45227586 13.0177627,5.41627586 13.3349153,5.38110345 C13.7837288,5.33131034 13.5757288,5.72482759 13.5903729,5.91324138 C13.624,6.3462069 13.5877966,6.78455172 13.5936271,7.22055172 C13.5962034,7.42137931 13.5795254,7.68055172 13.860339,7.69296552 C14.1336949,7.70496552 14.2174915,7.50151724 14.2616949,7.24165517 C14.3258305,6.86537931 14.1164746,6.32606897 14.7823729,6.2577931 C14.9895593,6.23655172 15.1412881,6.20717241 15.1369492,6.48606897 C15.1252881,7.22 15.1450847,7.95627586 15.0935593,8.68731034 C15.0614237,9.1422069 14.9589153,9.61172414 14.3861695,9.72331034 C14.3128136,9.73751724 14.1891525,9.85406897 14.1995932,9.88924138 C14.4638644,10.7815172 13.8776949,10.7833103 13.2432542,10.7550345 C13.6044746,11.1562759 13.9271864,11.5026207 14.1095593,11.9601379 C14.307661,12.4565517 14.2210169,12.9048276 13.7972881,13.1750345 C13.3938983,13.432 12.9289492,13.3892414 12.5416949,13.0482759 C12.4577627,12.9744828 12.3841356,12.8811034 12.3278644,12.7835862 C12.1853559,12.5362759 11.8014915,12.2863448 11.9400678,12.0572414 C12.0884068,11.8122759 12.4699661,11.6689655 12.844339,11.7209655 C12.5982373,11.1231724 11.6410847,10.9907586 11.8463729,10.1431724 C11.967322,9.64303448 12.4296949,9.55572414 12.8433898,9.43765517 C13.1849492,9.48206897 13.5265085,9.52634483 13.9290847,9.57848276 C13.5983729,9.21462069 13.2055593,9.29089655 12.8456949,9.25365517 Z M0.257532203,11.8806345 C0.192040678,11.223669 0.432311864,10.6067034 0.427430508,9.97291034 C0.425667797,9.74753103 0.615498305,9.47484138 0.147023729,9.35691034 C-0.13080678,9.28711724 0.0272949153,8.88242759 0.273125424,8.73332414 C1.07800678,8.24518621 1.95665085,8.08587586 2.86621017,8.30918621 C3.37170169,8.43318621 3.36871864,8.83773793 3.16790508,9.23870345 C2.89454915,9.78491034 2.42607458,10.0948414 1.85631186,10.2301517 C1.47027797,10.3217379 1.25576949,10.519669 1.27054915,10.9322207 C1.2956339,11.6291862 0.853871186,11.8133241 0.257532203,11.8806345 Z M2.31258305,8.93373793 C1.88600678,8.9353931 1.57970169,8.87235862 1.44993898,9.23746207 C1.42512542,9.3073931 1.4636339,9.47470345 1.48492203,9.47691034 C1.84261695,9.51387586 2.02295593,9.25953103 2.31258305,8.93373793 Z M4.16467797,3.91542069 C5.2739661,3.89955862 5.36969492,3.80783448 5.18501695,2.90976552 C4.74555932,3.1510069 4.33132203,3.38383448 4.16467797,3.91542069 Z M9.53332881,12.3146759 C9.90973559,11.6875034 10.2780068,11.0932966 10.6249898,10.4865379 C10.756922,10.2559172 10.9051254,10.0939862 11.172922,10.0259862 C11.454278,9.9544 11.5864814,9.97122759 11.5814644,10.3241931 C11.5703458,11.1228138 11.5740068,11.9230897 11.6171254,12.7201931 C11.6390915,13.1269517 11.4434305,13.2571586 11.1163797,13.2770207 C10.7180068,13.3011586 10.8045153,12.956331 10.7799729,12.7386759 C10.7527186,12.4949517 10.7928542,12.2432276 10.8070915,11.9152276 C10.3590915,12.220469 10.1988203,12.6473655 10.0024814,13.0345379 C9.86105763,13.3132966 9.71800678,13.5625379 9.38390508,13.5928828 C8.99678644,13.6279172 8.93997288,13.2753655 8.78485424,13.0384 C8.66810847,12.8596414 8.65210847,12.6064 8.38892203,12.4732966 C8.36139661,12.8192276 8.29414237,13.1310897 8.32248136,13.4337103 C8.36614237,13.8972966 8.06512542,13.904469 7.77251525,13.9276414 C7.35976949,13.960331 7.44614237,13.6255724 7.45414237,13.4047448 C7.47882034,12.7217103 7.55732881,12.0401931 7.56682034,11.3572966 C7.57143051,11.0273655 7.71570169,10.9109517 7.99014237,10.860469 C8.26132881,10.8104 8.52614237,10.6258483 8.74051525,11.0232276 C8.97346441,11.4550897 9.14580339,11.9356414 9.53332881,12.3146759 Z M10.4555254,9.81736552 C8.98311864,10.4707448 8.5260339,8.94315862 7.53538983,8.57764138 C7.36454237,8.81515862 7.42528814,9.14867586 7.4080678,9.4466069 C7.37945763,9.94246897 7.00454237,10.0231586 6.70081356,9.99226207 C6.36698305,9.9581931 6.51627119,9.60191724 6.53050847,9.37102069 C6.55166102,9.02908966 6.55966102,8.68246897 6.62474576,8.34826207 C6.70257627,7.94784828 6.41376271,7.4084 6.86230508,7.16302069 C7.49159322,6.81902069 8.1699661,6.49943448 8.92223729,6.62784828 C9.48644068,6.72412414 9.60372881,7.29971034 9.07816949,7.75681379 C8.63057627,8.14605517 8.7580339,8.3364 9.12345763,8.6141931 C9.35749153,8.79212414 9.56522034,9.00605517 9.7839322,9.20467586 C9.98216949,9.3844 10.1794576,9.56536552 10.4555254,9.81736552 Z M3.33597288,10.3786759 C3.44132881,9.58888276 3.54288814,8.82295172 3.81027797,8.09936552 C4.02031186,7.53095172 4.76851525,7.23371034 5.40729492,7.39508966 C6.06831186,7.56212414 6.33122712,7.97274483 6.21909153,8.66157241 C6.1716339,8.95315862 6.17298983,9.25771034 6.18939661,9.55426207 C6.22573559,10.2061241 5.97773559,10.5566069 5.28092203,10.4895724 C5.28092203,10.2967448 5.31726102,10.0875034 5.27061695,9.89977931 C5.22410847,9.71288276 5.57000678,9.39136552 5.16878644,9.35812414 C4.88580339,9.33467586 4.44187119,9.35177931 4.37746441,9.72391724 C4.26614237,10.3668138 3.82180339,10.3222621 3.33597288,10.3786759 Z M5.29014237,8.4726069 C5.25719322,8.29881379 5.17136271,8.15867586 5.0036339,8.14571034 C4.76295593,8.12708966 4.68458305,8.35067586 4.59441356,8.51771034 C4.53773559,8.6224 4.57882034,8.74971034 4.73624407,8.71812414 C4.93610847,8.67798621 5.18614237,8.73453793 5.29014237,8.4726069 Z M0.89620339,13.7855034 C0.878576271,13.5648138 1.13213559,13.1838483 0.543932203,12.9988828 C0.318440678,12.9279862 0.465016949,12.4879862 0.839254237,12.3735034 C1.54786441,12.1566759 2.24698305,11.9081241 2.9520678,11.6791586 C3.12752542,11.6221931 3.36969492,11.450469 3.44698305,11.7575034 C3.508,11.9990207 3.44630508,12.2637103 3.14379661,12.3641241 C2.84535593,12.4632966 2.55369492,12.5868828 2.25064407,12.6671586 C2.00820339,12.7314345 1.88101695,12.866469 1.95789831,13.1034345 C2.0460339,13.3750207 2.25227119,13.1746069 2.41010169,13.178469 C2.64101695,13.1838483 2.93701695,12.8031586 3.08549153,13.1907448 C3.23261017,13.5752966 2.98257627,13.774469 2.5939661,13.9074345 C1.73064407,14.2028828 1.73457627,14.2350207 2.13281356,15.0929517 C2.29416949,15.4406759 2.10935593,15.6816414 1.88833898,15.8648138 C1.63694915,16.0732276 1.48305085,15.8042621 1.34488136,15.6427448 C0.912881356,15.1376414 0.914237288,14.5124 0.89620339,13.7855034 Z M10.6782508,9.62292414 L10.6782508,7.13078621 C10.411539,6.91961379 10.0194034,7.51161379 9.90618305,6.95354483 C9.81886102,6.52333793 9.91635254,6.15975172 10.4660475,6.08430345 C10.9083525,6.02347586 11.3376407,5.86954483 11.7777763,5.78375172 C11.9474034,5.75064828 12.1924203,5.50595862 12.2904542,5.78609655 C12.3785898,6.03809655 12.4862508,6.44375172 12.1194712,6.56692414 C11.5960814,6.74251034 11.6025898,7.10623448 11.622522,7.53906207 C11.6404203,7.92706207 11.5568949,8.3254069 11.6126237,8.70471724 C11.715539,9.40595862 11.415878,9.66126897 10.6782508,9.62292414 Z M5.99869831,13.7504276 C6.15124068,13.711669 6.30391864,13.6420138 6.45659661,13.6421517 C6.64412203,13.6424276 6.89822373,13.3512552 6.9867661,13.6093241 C7.07300339,13.8603586 7.01618983,14.2249103 6.67964746,14.3549793 C6.30242712,14.5007724 5.91598644,14.6389793 5.52141017,14.7159448 C5.21442712,14.7759448 5.0048,14.6203586 5.01225763,14.251531 C5.03151186,13.2872552 5.1508339,12.3376 5.35368136,11.3951172 C5.4228339,11.0741517 5.67327458,11.0491862 5.86405424,11.071669 C6.10947797,11.1007724 6.01185085,11.3614621 6.00181695,11.5294621 C5.96113898,12.2142897 5.90893559,12.8982897 5.86093559,13.5827034 C5.79218983,13.7360828 5.81537627,13.8111172 5.99869831,13.7504276 Z M4.58225085,11.8641655 C4.48204746,12.8364414 4.37655593,13.7630621 4.29506441,14.6918897 C4.25750508,15.1187862 3.93303051,15.1592 3.66509831,15.1423724 C3.30821695,15.1198897 3.48421695,14.7888552 3.49750508,14.6034759 C3.5592,13.7394759 3.65045424,12.8776828 3.73167458,12.0150621 C3.74835254,11.8380966 3.69181017,11.6128552 3.87838644,11.5190621 C4.07377627,11.4207172 4.33479322,11.2928552 4.50753898,11.3535448 C4.71933559,11.4278897 4.49560678,11.7204414 4.58225085,11.8641655 Z" id="svg"></path>
        </g>
    </g>
</svg>